{"title":"Sudh Desi Romance (2013) 1CD XVID Scam RIP - IcTv Hindi","uid":8887526,"size":635853798,"categoryP":"video","categoryS":"movies","magnet":"?xt=urn:btih:1aba9ef047202a9fdf03749a8aee0e8cb6515664&amp;dn=Sudh+Desi+Romance+%282013%29+1CD+XVID+Scam+RIP+-+IcTv+Hindi&amp;tr=udp%3A%2F%2Ftracker.openbittorrent.com%3A80&amp;tr=udp%3A%2F%2Fopen.demonii.com%3A1337&amp;tr=udp%3A%2F%2Ftracker.coppersurfer.tk%3A6969&amp;tr=udp%3A%2F%2Fexodus.desync.com%3A6969","seeders":4,"leechers":1,"uploader":"SJonam","files":1,"time":1378496265,"description":" &lt;a href=&quot;http://s18.postimg.org/q1xcnecvd/9999999999.jpg&quot; rel=&quot;nofollow&quot; target=&quot;_NEW&quot;&gt;http://s18.postimg.org/q1xcnecvd/9999999999.jpg&lt;/a&gt; &lt;a href=&quot;\nhttp://www.filmze.biz/wp-content/uploads/2013/08/lG83aQLmHSaZr0wB1Jl4ctTAu3u.jpg&quot; rel=&quot;nofollow&quot; target=&quot;_NEW&quot;&gt;\nhttp://www.filmze.biz/wp-content/uploads/2013/08/lG83aQLmHSaZr0wB1Jl4ctTAu3u.jpg&lt;/a&gt; &lt;a href=&quot;\nhttp://t1.someimage.com/FCsaD6U.jpg&quot; rel=&quot;nofollow&quot; target=&quot;_NEW&quot;&gt;\nhttp://t1.someimage.com/FCsaD6U.jpg&lt;/a&gt; &lt;a href=&quot;\nhttp://t1.someimage.com/gEJwOJs.jpg&quot; rel=&quot;nofollow&quot; target=&quot;_NEW&quot;&gt;\nhttp://t1.someimage.com/gEJwOJs.jpg&lt;/a&gt; &lt;a href=&quot;\nhttp://t1.someimage.com/V7l0MGw.jpg&quot; rel=&quot;nofollow&quot; target=&quot;_NEW&quot;&gt;\nhttp://t1.someimage.com/V7l0MGw.jpg&lt;/a&gt; &lt;a href=&quot;\nhttp://t1.someimage.com/eYwIUge.jpg&quot; rel=&quot;nofollow&quot; target=&quot;_NEW&quot;&gt;\nhttp://t1.someimage.com/eYwIUge.jpg&lt;/a&gt;\n\nMedia Info - \nGeneral\nComplete name : Sudh Desi Romance (2013) 1CD XVID Scam RIP - Team IcTv Exclusive.avi\nFormat : AVI\nFormat/Info : Audio Video Interleave\nFile size : 606 MiB\nDuration : 1h 54mn\nOverall bit rate : 741 Kbps\n\nVideo\nID : 0\nFormat : MPEG-4 Visual\nFormat profile : Advanced Simple@L5\nFormat settings, BVOP : 2\nFormat settings, QPel : No\nFormat settings, GMC : No warppoints\nFormat settings, Matrix : Default (H.263)\nCodec ID : XVID\nCodec ID/Hint : XviD\nDuration : 1h 54mn\nBit rate : 605 Kbps\nWidth : 576 pixels\nHeight : 208 pixels\nDisplay aspect ratio : 2.769\nFrame rate : 25.000 fps\nColor space : YUV\nChroma subsampling : 4:2:0\nBit depth : 8 bits\nScan type : Progressive\nCompression mode : Lossy\nBits/(Pixel*Frame) : 0.202\nStream size : 495 MiB (82%)\nWriting library : XviD 1.2.1 (UTC 2008-12-04)\n\nAudio\nID : 1\nFormat : AC-3\nFormat/Info : Audio Coding 3\nMode extension : CM (complete main)\nCodec ID : 2000\nDuration : 1h 54mn\nBit rate mode : Constant\nBit rate : 128 Kbps\nChannel(s) : 2 channels\nChannel positions : Front: L R\nSampling rate : 48.0 KHz\nBit depth : 16 bits\nCompression mode : Lossy\nStream size : 105 MiB (17%)\nAlignment : Aligned on interleaves\nInterleave, duration : 64 ms (1.60 video frames)\nInterleave, preload duration : 192 ms\nTitle : VTS_01_1 Tc0 L2 2ch 48 128 DELAY 0ms\n\nSample - http://www.sendspace.com/file/u5nzvm\n\nRipper : TJ_DA_King\n\nSeeding 24x7... Extreme Seeding...\n\n\nEnjoy!","torrent":{"xt":"urn:btih:1aba9ef047202a9fdf03749a8aee0e8cb6515664","amp;dn":"Sudh+Desi+Romance+%282013%29+1CD+XVID+Scam+RIP+-+IcTv+Hindi","amp;tr":["udp%3A%2F%2Ftracker.openbittorrent.com%3A80","udp%3A%2F%2Fopen.demonii.com%3A1337","udp%3A%2F%2Ftracker.coppersurfer.tk%3A6969","udp%3A%2F%2Fexodus.desync.com%3A6969"],"infoHash":"1aba9ef047202a9fdf03749a8aee0e8cb6515664","infoHashBuffer":{"type":"Buffer","data":[26,186,158,240,71,32,42,159,223,3,116,154,138,238,14,140,182,81,86,100]},"announce":[],"urlList":[]}}